<?xml version="1.0" ?><svg id="Icons" viewBox="0 0 60 60" xmlns="http://www.w3.org/2000/svg"><defs><style>.cls-1{fill:#ad1457;}.cls-2{fill:#e91e63;}.cls-3{fill:#4527a0;}.cls-4{fill:#673ab7;}.cls-5{fill:#fec108;}.cls-6{fill:#ffecb3;}</style></defs><title/><path class="cls-1" d="M46.29,17.26a15.18946,15.18946,0,0,1-.08,1.65l-.29,2.89L45,30.97l-.46,4.63A6.00712,6.00712,0,0,1,38.57,41H21.43a6.00712,6.00712,0,0,1-5.97-5.4L15,30.97l-.92-9.17-.29-2.89A16.26665,16.26665,0,0,1,27.86,1.15,15.08355,15.08355,0,0,1,30,1,16.29209,16.29209,0,0,1,46.29,17.26Z"/><path class="cls-2" d="M42,17.26a15.18954,15.18954,0,0,1-.08,1.65l-.29,2.89-.92,9.17-.46,4.63A6.00716,6.00716,0,0,1,34.28,41H21.43a6.00712,6.00712,0,0,1-5.97-5.4L15,30.97l-.92-9.17-.29-2.89A16.26665,16.26665,0,0,1,27.86,1.15,16.28248,16.28248,0,0,1,42,17.26Z"/><path class="cls-3" d="M42.29,17.03a12.28127,12.28127,0,0,1-.06,1.48l-.08.85L40.88,32.04l-.12,1.17A30.99549,30.99549,0,0,1,30,35c-.72,0-1.44-.02-2.14-.07a29.28222,29.28222,0,0,1-8.62-1.72l-.12-1.17L17.85,19.36l-.08-.85a12.28127,12.28127,0,0,1-.06-1.48c1.53-1.54,5.41-2.7,10.15-2.97.7-.04,1.41-.06,2.14-.06C35.69,14,40.53,15.26,42.29,17.03Z"/><path class="cls-4" d="M38,17.03a12.29383,12.29383,0,0,1-.06,1.48l-.08.85L36.59,32.04,36.47,33.21a29.212,29.212,0,0,1-8.61,1.72,29.28222,29.28222,0,0,1-8.62-1.72l-.12-1.17L17.85,19.36l-.08-.85a12.28127,12.28127,0,0,1-.06-1.48c1.53-1.54,5.41-2.7,10.15-2.97C32.59,14.33,36.47,15.49,38,17.03Z"/><path d="M31,31H29a1,1,0,0,1,0-2h2a1,1,0,0,1,0,2Z"/><path d="M27,24H23a1,1,0,0,1,0-2h4a1,1,0,0,1,0,2Z"/><path d="M37,24H33a1,1,0,0,1,0-2h4a1,1,0,0,1,0,2Z"/><path d="M25,26a1,1,0,0,1-1-1V23a1,1,0,0,1,2,0v2A1,1,0,0,1,25,26Z"/><path d="M35,26a1,1,0,0,1-1-1V23a1,1,0,0,1,2,0v2A1,1,0,0,1,35,26Z"/><path class="cls-1" d="M51.26,59H48.52l-.45-2.34a14.60544,14.60544,0,0,0-1.62-4.15C45.11,50.28,43.26,49,41.36,49H40.5a4.03564,4.03564,0,0,0-.6.04,3.757,3.757,0,0,0-1.67.67,14.23609,14.23609,0,0,1-16.46,0,3.757,3.757,0,0,0-1.67-.67,4.03564,4.03564,0,0,0-.6-.04h-.86a4.9742,4.9742,0,0,0-2.75.9,8.543,8.543,0,0,0-2.34,2.61,14.60544,14.60544,0,0,0-1.62,4.15L11.48,59H8.74a2.0026,2.0026,0,0,1-1.91-2.61L8.15,52.27a11.22939,11.22939,0,0,1,6.2-6.42A11.39471,11.39471,0,0,1,18.64,45h3.31c.01.01.02.01.03.02A15.14674,15.14674,0,0,0,30,47a15.14674,15.14674,0,0,0,8.02-1.98c.01-.00995.02-.00995.03-.02h3.31a11.20454,11.20454,0,0,1,10.49,7.27L53.17,56.39A2.0026,2.0026,0,0,1,51.26,59Z"/><path d="M51.25977,60H48.52a.99976.99976,0,0,1-.98193-.811l-.4502-2.33984a13.57067,13.57067,0,0,0-1.49609-3.82617C44.4375,51.10254,42.89453,50,41.35986,50H40.5a2.9726,2.9726,0,0,0-.45068.02881,2.76114,2.76114,0,0,0-1.22705.48682,15.2347,15.2347,0,0,1-17.63916.00391,2.76788,2.76788,0,0,0-1.231-.49072A3.00394,3.00394,0,0,0,19.5,50h-.85986a3.95262,3.95262,0,0,0-2.19092.729,7.5389,7.5389,0,0,0-2.04346,2.29736,13.62735,13.62735,0,0,0-1.50146,3.85986L12.46191,59.189A.99976.99976,0,0,1,11.48,60H8.74023A3.00292,3.00292,0,0,1,5.877,56.08691l1.3208-4.12207A12.18114,12.18114,0,0,1,18.64014,44H21.9502a1.00175,1.00175,0,0,1,.56787.17676l.01367.00928A14.27783,14.27783,0,0,0,30,46a14.27772,14.27772,0,0,0,7.46631-1.813l.0166-.01074A.99821.99821,0,0,1,38.0498,44h3.31006a12.20344,12.20344,0,0,1,11.42627,7.91846l1.33594,4.1665A3.00251,3.00251,0,0,1,51.25977,60ZM49.3457,58h1.91406a1.00237,1.00237,0,0,0,.957-1.30664L50.89795,52.5752A10.20839,10.20839,0,0,0,41.35986,46H38.34277A16.378,16.378,0,0,1,30,48a16.378,16.378,0,0,1-8.34277-2H18.64014a10.20329,10.20329,0,0,0-9.5542,6.62158L7.78223,56.69531A1.00279,1.00279,0,0,0,8.74023,58h1.91357l.29443-1.52881a15.69258,15.69258,0,0,1,1.74316-4.47461,9.52552,9.52552,0,0,1,2.623-2.91406A5.95425,5.95425,0,0,1,18.64014,48H19.5a5.02252,5.02252,0,0,1,.74951.05127,4.768,4.768,0,0,1,2.11279.853,13.23648,13.23648,0,0,0,15.28076-.00391,4.76064,4.76064,0,0,1,2.10889-.84912A4.98981,4.98981,0,0,1,40.5,48h.85986c2.25391,0,4.42139,1.45605,5.94727,3.99463a15.63659,15.63659,0,0,1,1.73682,4.43945Z"/><path class="cls-1" d="M40,50v9H20V50l.1-.96a3.757,3.757,0,0,1,1.67.67,14.23609,14.23609,0,0,0,16.46,0,3.757,3.757,0,0,1,1.67-.67Z"/><path d="M40,60H20a1,1,0,0,1-1-1V50c0-.03467.002-.06934.00537-.10352l.1001-.96a.99981.99981,0,0,1,1.14258-.88525,4.76679,4.76679,0,0,1,2.11426.853,13.23648,13.23648,0,0,0,15.28076-.00391,4.76064,4.76064,0,0,1,2.10889-.84912.99981.99981,0,0,1,1.14258.88525l.1001.96C40.998,49.93066,41,49.96533,41,50v9A1,1,0,0,1,40,60ZM21,58H39V50.397c-.06152.0376-.12109.07715-.17773.11865a15.2347,15.2347,0,0,1-17.63916.00391c-.05908-.043-.12012-.084-.18311-.12207Z"/><path class="cls-2" d="M20.1,49.04,20,50v9H11.48l.45-2.34a14.60544,14.60544,0,0,1,1.62-4.15,8.543,8.543,0,0,1,2.34-2.61,4.9742,4.9742,0,0,1,2.75-.9h.86A4.03564,4.03564,0,0,1,20.1,49.04Z"/><path class="cls-2" d="M40,59V50l-.1-.96a4.03564,4.03564,0,0,1,.6-.04h.86c1.9,0,3.75,1.28,5.09,3.51a14.60544,14.60544,0,0,1,1.62,4.15L48.52,59Z"/><path d="M20,60H11.48a1.00007,1.00007,0,0,1-.98193-1.189l.4502-2.33984a15.69258,15.69258,0,0,1,1.74316-4.47461,9.52552,9.52552,0,0,1,2.623-2.91406A5.95425,5.95425,0,0,1,18.64014,48H19.5a5.02252,5.02252,0,0,1,.74951.05127,1.00034,1.00034,0,0,1,.84521,1.09229L21,50.05225V59A1,1,0,0,1,20,60Zm-7.30957-2H19V50h-.35986a3.95262,3.95262,0,0,0-2.19092.729,7.5389,7.5389,0,0,0-2.04346,2.29736,13.62735,13.62735,0,0,0-1.50146,3.85986Z"/><path d="M48.52,60H40a1,1,0,0,1-1-1V50.05225l-.09473-.90869a1.00034,1.00034,0,0,1,.84521-1.09229A5.02252,5.02252,0,0,1,40.5,48h.85986c2.25391,0,4.42139,1.45605,5.94727,3.99463a15.63659,15.63659,0,0,1,1.73682,4.43945l.458,2.377A1.00007,1.00007,0,0,1,48.52,60ZM41,58h6.30908l-.22119-1.15088a13.57067,13.57067,0,0,0-1.49609-3.82617C44.4375,51.10254,42.89453,50,41.35986,50H41Z"/><path d="M30,48a16.028,16.028,0,0,1-8.60352-2.16748.99984.99984,0,1,1,1.10742-1.665A14.23548,14.23548,0,0,0,30,46a14.23548,14.23548,0,0,0,7.49609-1.83252.99984.99984,0,1,1,1.10742,1.665A16.028,16.028,0,0,1,30,48Z"/><path class="cls-5" d="M38.02,45.02A15.14674,15.14674,0,0,1,30,47a18.76367,18.76367,0,0,1-2.01-.11A13.58055,13.58055,0,0,1,21.98,45.02l.09-.15A8.40859,8.40859,0,0,0,22.88,41H37.12a8.40859,8.40859,0,0,0,.81,3.87Z"/><path class="cls-6" d="M34,45.02A13.58055,13.58055,0,0,1,27.99,46.89,13.58055,13.58055,0,0,1,21.98,45.02l.09-.15A8.40859,8.40859,0,0,0,22.88,41H33.1a8.40937,8.40937,0,0,0,.81,3.87Z"/><path d="M30,48a16.06672,16.06672,0,0,1-8.57031-2.145,1.00013,1.00013,0,0,1-.30762-1.34912l.08984-.1499a7.45961,7.45961,0,0,0,.668-3.36963,1.00037,1.00037,0,0,1,1-.98633H37.12012a1.00037,1.00037,0,0,1,1,.98633,7.4415,7.4415,0,0,0,.68311,3.396l.07471.12354a1.00013,1.00013,0,0,1-.30762,1.34912A16.06672,16.06672,0,0,1,30,48Zm-6.71338-3.37939A15.4575,15.4575,0,0,0,30,46a15.45986,15.45986,0,0,0,6.71582-1.38037A9.361,9.361,0,0,1,36.165,42H23.835A9.38085,9.38085,0,0,1,23.28662,44.62061Z"/><path d="M38.56982,42H21.43018a6.98314,6.98314,0,0,1-6.96533-6.29932L12.79492,19.01025A17.29044,17.29044,0,1,1,47.29,17.25977a16.226,16.226,0,0,1-.08594,1.75879L45.53516,35.69873A6.98329,6.98329,0,0,1,38.56982,42ZM30,2A15.28771,15.28771,0,0,0,14.78516,18.81055l1.66992,16.69092A4.98821,4.98821,0,0,0,21.43018,40H38.56982a4.98836,4.98836,0,0,0,4.9751-4.50049l1.66992-16.68945a14.24319,14.24319,0,0,0,.0752-1.55029A15.29223,15.29223,0,0,0,30,2Z"/><path d="M20.88428,10.04346a1,1,0,0,1-.74072-1.6709A13.13949,13.13949,0,0,1,30,4a1,1,0,0,1,0,2,11.16541,11.16541,0,0,0-8.374,3.71436A.9963.9963,0,0,1,20.88428,10.04346Z"/><path d="M45.001,31.97021a.99924.99924,0,0,1-.99609-1.09961l.91992-9.17041a1.00009,1.00009,0,0,1,1.99023.19922l-.91992,9.17041A1.00026,1.00026,0,0,1,45.001,31.97021Z"/><path d="M30,36a31.94386,31.94386,0,0,1-11.1123-1.854.99956.99956,0,0,1-.64209-.834l-1.47119-14.7085A13.33429,13.33429,0,0,1,16.71,17.00977a1.00047,1.00047,0,0,1,.291-.68506C19.00928,14.30518,24.11182,13,30,13s10.99072,1.30518,12.999,3.32471a1.00047,1.00047,0,0,1,.291.68506,13.36779,13.36779,0,0,1-.06494,1.59912l-.07959.84473L41.75439,33.312a.99956.99956,0,0,1-.64209.834A31.94386,31.94386,0,0,1,30,36Zm-9.8291-3.51709A30.47415,30.47415,0,0,0,30,34a30.47415,30.47415,0,0,0,9.8291-1.51709L41.23438,18.416c.03174-.3208.05029-.62988.05615-.938C39.72119,16.24023,35.69385,15,30,15s-9.72119,1.24023-11.29053,2.478c.00537.30762.02393.61572.05566.93262l.08057.85547Z"/><path d="M14.999,31.97021a1.00026,1.00026,0,0,1-.99414-.90039L13.085,21.89941a1.00009,1.00009,0,0,1,1.99023-.19922l.91992,9.17041a.99924.99924,0,0,1-.99609,1.09961Z"/><path d="M22,20a1.05235,1.05235,0,0,1-.71-.29,1.15552,1.15552,0,0,1-.21045-.33008A.999.999,0,0,1,21,19a1.05006,1.05006,0,0,1,.29-.71,1.00229,1.00229,0,0,1,1.08984-.21045A1.15552,1.15552,0,0,1,22.71,18.29,1.05235,1.05235,0,0,1,23,19a.838.838,0,0,1-.08008.37988.90089.90089,0,0,1-.54.54A.838.838,0,0,1,22,20Z"/><path d="M29,20H25a1,1,0,0,1,0-2h4a1,1,0,0,1,0,2Z"/></svg>